<svg width="241" height="70" viewBox="0 0 241 70" fill="none" xmlns="http://www.w3.org/2000/svg">
<path d="M39.1373 5.43575V19.5687C39.1373 20.1453 39.3664 20.6984 39.7741 21.1061C40.1819 21.5139 40.7349 21.7429 41.3116 21.7429H55.4445L39.1373 5.43575Z" fill="white"/>
<path d="M34.7887 4.3486V19.5687C34.7887 21.2986 35.4759 22.9577 36.6992 24.181C37.9225 25.4043 39.5816 26.0915 41.3116 26.0915H56.5316V58.7059C56.5316 60.4359 55.8444 62.095 54.6211 63.3183C53.3978 64.5416 51.7387 65.2288 50.0087 65.2288H19.5686C17.8387 65.2288 16.1795 64.5416 14.9563 63.3183C13.733 62.095 13.0458 60.4359 13.0458 58.7059V10.8715C13.0458 9.14151 13.733 7.48239 14.9563 6.25911C16.1795 5.03583 17.8387 4.3486 19.5686 4.3486H34.7887Z" fill="#001544"/>
<path d="M38.6153 47.7695C38.5969 42.2874 38.5969 36.9681 38.5969 31.5273C40.3391 31.5273 41.9836 31.5273 43.75 31.5273C43.75 33.4171 43.7501 35.2724 43.75 37.1277C43.7497 42.6876 43.8511 50.9724 43.8913 56.5316C42.8428 56.5316 43.2243 56.5313 42.3186 56.5316C41.7297 56.5318 41.2702 56.5316 40.746 56.5316C40.2218 56.5316 39.4342 56.4304 38.6338 56.4304C38.6338 53.553 38.6338 50.7427 38.6153 47.7695Z" fill="#FDFEFE"/>
<path d="M34.5979 36.6303C35.5996 36.6041 36.4972 36.6041 37.5409 36.6041C37.5409 40.3063 37.5409 43.7939 37.5435 47.4471C37.5461 50.5268 37.5461 53.4409 37.5461 56.5189C35.7142 56.5189 34.0046 56.5189 32.2514 56.5189C32.2514 49.8687 32.2514 43.3344 32.2514 36.6566C33.0293 36.6566 33.7615 36.6566 34.5979 36.6303Z" fill="white"/>
<path d="M25.7679 48.6607C25.7679 46.3311 25.7679 44.1775 25.7679 41.9554C27.616 41.9554 29.3311 41.9554 31.0948 41.9554C31.0948 46.7795 31.0948 51.7485 31.0948 56.7397C29.143 56.7397 27.7795 56.5317 25.7679 56.4919C25.7679 54.2354 25.7679 50.9381 25.7679 48.6607Z" fill="white"/>
<path d="M81.4155 24.4197V37.2046C81.4155 38.4831 81.73 39.4673 82.3591 40.1573C82.9882 40.8473 83.9116 41.1922 85.1292 41.1922C86.3468 41.1922 87.2803 40.8473 87.9297 40.1573C88.5791 39.4673 88.9037 38.4831 88.9037 37.2046V24.4197H94.109V37.1741C94.109 39.0817 93.7031 40.6951 92.8914 42.0141C92.0797 43.3332 90.9838 44.3276 89.6039 44.9973C88.2442 45.6669 86.7222 46.0018 85.0379 46.0018C83.3535 46.0018 81.8416 45.6771 80.5023 45.0277C79.1832 44.358 78.1381 43.3636 77.367 42.0446C76.5958 40.7052 76.2102 39.0817 76.2102 37.1741V24.4197H81.4155ZM103.304 41.5271H112.497V45.7887H97.3989V41.8315L106.531 28.6814H97.3989V24.4197H112.497V28.377L103.304 41.5271ZM129.2 42.0141H121.224L119.946 45.7887H114.497L122.229 24.4197H128.256L135.988 45.7887H130.478L129.2 42.0141ZM127.86 37.996L125.212 30.1729L122.594 37.996H127.86ZM151.187 24.6328V27.4638H142.207V33.704H149.208V36.5349H142.207V45.7887H138.737V24.6328H151.187ZM164.052 46.0018C162.084 46.0018 160.268 45.5452 158.604 44.632C156.96 43.6985 155.651 42.4098 154.677 40.7661C153.723 39.102 153.246 37.235 153.246 35.1651C153.246 33.0952 153.723 31.2383 154.677 29.5946C155.651 27.9508 156.96 26.6723 158.604 25.7591C160.268 24.8256 162.084 24.3589 164.052 24.3589C166.041 24.3589 167.857 24.8256 169.501 25.7591C171.165 26.6723 172.474 27.9508 173.428 29.5946C174.382 31.2383 174.859 33.0952 174.859 35.1651C174.859 37.235 174.382 39.102 173.428 40.7661C172.474 42.4098 171.165 43.6985 169.501 44.632C167.857 45.5452 166.041 46.0018 164.052 46.0018ZM164.052 42.9882C165.453 42.9882 166.701 42.6737 167.796 42.0446C168.892 41.3952 169.745 40.482 170.353 39.305C170.982 38.1076 171.297 36.7277 171.297 35.1651C171.297 33.6025 170.982 32.2327 170.353 31.0557C169.745 29.8787 168.892 28.9756 167.796 28.3465C166.701 27.7174 165.453 27.4029 164.052 27.4029C162.652 27.4029 161.404 27.7174 160.308 28.3465C159.212 28.9756 158.35 29.8787 157.721 31.0557C157.112 32.2327 156.808 33.6025 156.808 35.1651C156.808 36.7277 157.112 38.1076 157.721 39.305C158.35 40.482 159.212 41.3952 160.308 42.0446C161.404 42.6737 162.652 42.9882 164.052 42.9882ZM189.262 45.7887L184.392 37.3263H181.743V45.7887H178.273V24.6328H185.579C187.202 24.6328 188.572 24.9169 189.688 25.4851C190.825 26.0534 191.667 26.8144 192.215 27.7682C192.783 28.7219 193.067 29.7873 193.067 30.9644C193.067 32.3443 192.661 33.6025 191.85 34.7389C191.058 35.8551 189.83 36.6161 188.166 37.0219L193.402 45.7887H189.262ZM181.743 34.5563H185.579C186.878 34.5563 187.852 34.2316 188.501 33.5822C189.171 32.9328 189.506 32.0602 189.506 30.9644C189.506 29.8685 189.181 29.0162 188.532 28.4074C187.882 27.7783 186.898 27.4638 185.579 27.4638H181.743V34.5563ZM219.789 24.6328V45.7887H216.318V31.2992L209.865 45.7887H207.46L200.977 31.2992V45.7887H197.506V24.6328H201.251L208.678 41.2227L216.075 24.6328H219.789ZM231.32 46.0018C229.9 46.0018 228.621 45.7583 227.485 45.2712C226.348 44.7639 225.456 44.0536 224.806 43.1404C224.157 42.2272 223.832 41.1618 223.832 39.9442H227.546C227.627 40.8574 227.982 41.6083 228.611 42.1968C229.261 42.7853 230.164 43.0795 231.32 43.0795C232.518 43.0795 233.451 42.7954 234.121 42.2272C234.791 41.6387 235.125 40.8878 235.125 39.9746C235.125 39.2644 234.912 38.686 234.486 38.2396C234.08 37.7931 233.563 37.4481 232.934 37.2046C232.325 36.9611 231.473 36.6973 230.377 36.4131C228.997 36.0479 227.871 35.6826 226.998 35.3173C226.146 34.9317 225.415 34.3432 224.806 33.5518C224.197 32.7603 223.893 31.7051 223.893 30.386C223.893 29.1684 224.197 28.103 224.806 27.1898C225.415 26.2766 226.267 25.5765 227.363 25.0894C228.459 24.6024 229.727 24.3589 231.168 24.3589C233.218 24.3589 234.892 24.8763 236.191 25.9113C237.51 26.926 238.24 28.3262 238.382 30.112H234.547C234.486 29.3409 234.121 28.6814 233.451 28.1334C232.782 27.5855 231.899 27.3116 230.803 27.3116C229.809 27.3116 228.997 27.5652 228.368 28.0726C227.739 28.5799 227.424 29.3105 227.424 30.2642C227.424 30.9136 227.617 31.4514 228.002 31.8776C228.408 32.2834 228.916 32.6081 229.524 32.8517C230.133 33.0952 230.965 33.359 232.021 33.6431C233.421 34.0287 234.557 34.4142 235.43 34.7998C236.323 35.1854 237.074 35.784 237.682 36.5958C238.311 37.3872 238.626 38.4526 238.626 39.792C238.626 40.8675 238.332 41.8822 237.743 42.836C237.175 43.7898 236.333 44.5609 235.217 45.1495C234.121 45.7177 232.822 46.0018 231.32 46.0018Z" fill="white"/>
</svg>
