<svg width="70" height="70" viewBox="0 0 70 70" fill="none" xmlns="http://www.w3.org/2000/svg">
<path d="M39.1373 5.43575V19.5687C39.1373 20.1453 39.3664 20.6984 39.7741 21.1061C40.1819 21.5139 40.7349 21.7429 41.3116 21.7429H55.4445L39.1373 5.43575Z" fill="#0034A9"/>
<path d="M34.7887 4.3486V19.5687C34.7887 21.2986 35.4759 22.9577 36.6992 24.181C37.9225 25.4043 39.5816 26.0915 41.3116 26.0915H56.5316V58.7059C56.5316 60.4359 55.8444 62.095 54.6211 63.3183C53.3978 64.5416 51.7387 65.2288 50.0087 65.2288H19.5686C17.8387 65.2288 16.1795 64.5416 14.9563 63.3183C13.733 62.095 13.0458 60.4359 13.0458 58.7059V10.8715C13.0458 9.14151 13.733 7.48239 14.9563 6.25911C16.1795 5.03583 17.8387 4.3486 19.5686 4.3486H34.7887Z" fill="#001544"/>
<path d="M38.6153 47.7695C38.5969 42.2874 38.5969 36.9681 38.5969 31.5273C40.3391 31.5273 41.9836 31.5273 43.75 31.5273C43.75 33.4171 43.7501 35.2724 43.75 37.1277C43.7497 42.6876 43.8511 50.9724 43.8913 56.5316C42.8428 56.5316 43.2243 56.5313 42.3186 56.5316C41.7297 56.5318 41.2702 56.5316 40.746 56.5316C40.2218 56.5316 39.4342 56.4304 38.6338 56.4304C38.6338 53.553 38.6338 50.7427 38.6153 47.7695Z" fill="white"/>
<path d="M34.5979 36.6303C35.5996 36.6041 36.4972 36.6041 37.5409 36.6041C37.5409 40.3063 37.5409 43.7939 37.5435 47.4471C37.5461 50.5268 37.5461 53.4409 37.5461 56.5189C35.7142 56.5189 34.0046 56.5189 32.2514 56.5189C32.2514 49.8687 32.2514 43.3344 32.2514 36.6566C33.0293 36.6566 33.7615 36.6566 34.5979 36.6303Z" fill="#FDFEFE"/>
<path d="M25.7679 48.6607C25.7679 46.3311 25.7679 44.1775 25.7679 41.9554C27.616 41.9554 29.3311 41.9554 31.0948 41.9554C31.0948 46.7795 31.0948 51.7485 31.0948 56.7397C29.143 56.7397 27.7795 56.5317 25.7679 56.4919C25.7679 54.2354 25.7679 50.9381 25.7679 48.6607Z" fill="#F8FBFC"/>
</svg>
